<?xml version="1.0" encoding="UTF-8" standalone="no"?>
<svg
    xmlns:inkscape="http://www.inkscape.org/namespaces/inkscape"
    xmlns:rdf="http://www.w3.org/1999/02/22-rdf-syntax-ns#"
    xmlns="http://www.w3.org/2000/svg"
    xmlns:cc="http://creativecommons.org/ns#"
    xmlns:dc="http://purl.org/dc/elements/1.1/"
    xmlns:sodipodi="http://sodipodi.sourceforge.net/DTD/sodipodi-0.dtd"
    id="svg2"
    sodipodi:docname="_svgclean2.svg"
    viewBox="0 0 168 168"
    version="1.1"
    inkscape:version="0.48.3.1 r9886"
  >
  
  <sodipodi:namedview
      id="namedview8"
      bordercolor="#666666"
      inkscape:pageshadow="2"
      guidetolerance="10"
      pagecolor="#ffffff"
      gridtolerance="10"
      inkscape:window-maximized="0"
      inkscape:zoom="0.22425739"
      objecttolerance="10"
      borderopacity="1"
      inkscape:current-layer="svg2"
      inkscape:cx="372.04724"
      inkscape:cy="-370.18109"
      inkscape:window-y="0"
      inkscape:window-x="0"
      inkscape:window-width="640"
      showgrid="false"
      inkscape:pageopacity="0"
      inkscape:window-height="480"
  />
  
  <defs>
    <!-- Galaxy background gradient -->
    <radialGradient id="galaxyGradient" cx="50%" cy="50%" r="60%">
      <stop offset="0%" style="stop-color:#1a0533;stop-opacity:1" />
      <stop offset="20%" style="stop-color:#2d1b69;stop-opacity:1" />
      <stop offset="40%" style="stop-color:#4a2c85;stop-opacity:1" />
      <stop offset="60%" style="stop-color:#0f051a;stop-opacity:1" />
      <stop offset="100%" style="stop-color:#000000;stop-opacity:1" />
    </radialGradient>
    
    <!-- Nebula swirl gradient -->
    <radialGradient id="nebulaGradient" cx="30%" cy="70%" r="80%">
      <stop offset="0%" style="stop-color:#ff6b9d;stop-opacity:0.3" />
      <stop offset="30%" style="stop-color:#c44569;stop-opacity:0.2" />
      <stop offset="60%" style="stop-color:#6c5ce7;stop-opacity:0.1" />
      <stop offset="100%" style="stop-color:#2d3436;stop-opacity:0" />
    </radialGradient>
    
    <!-- Blue nebula -->
    <radialGradient id="blueNebula" cx="70%" cy="30%" r="50%">
      <stop offset="0%" style="stop-color:#74b9ff;stop-opacity:0.4" />
      <stop offset="50%" style="stop-color:#0984e3;stop-opacity:0.2" />
      <stop offset="100%" style="stop-color:#2d3436;stop-opacity:0" />
    </radialGradient>
    
    <!-- Spiral arm gradient -->
    <linearGradient id="spiralArm" x1="0%" y1="0%" x2="100%" y2="100%">
      <stop offset="0%" style="stop-color:#ffffff;stop-opacity:0.1" />
      <stop offset="50%" style="stop-color:#ddd6fe;stop-opacity:0.05" />
      <stop offset="100%" style="stop-color:#000000;stop-opacity:0" />
    </linearGradient>
  </defs>
  
  <!-- The actual yin-yang shape filled with galaxy -->
  <path
      d="m0 95c0-39.4 31.6-77 74-77 33.8 0 61 23.2 61 58 0 20.8-16.2 44-41 44-22 0-34-14-34-31-3.6 0-6 6-6 12 0 16.6 19.8 34 43 34 30.4 0 62-27.8 62-69 0-25.6-12.4-47-23-60 13 11 32 32.8 32 67 0 39.4-31.6 77-74 77-33.8 0-61-23.2-61-58 0-20.8 16.2-44 41-44 22 0 34 14 34 31 3.6 0 6-6 6-12 0-16.6-19.8-34-43-34-30.4 0-62 27.8-62 69 0 25.6 12.4 47 23 60-13-11-32-32.8-32-67z"
      fill="url(#galaxyGradient)"
  />
  
  <!-- Nebula clouds within yin-yang -->
  <path
      d="m0 95c0-39.4 31.6-77 74-77 33.8 0 61 23.2 61 58 0 20.8-16.2 44-41 44-22 0-34-14-34-31-3.6 0-6 6-6 12 0 16.6 19.8 34 43 34 30.4 0 62-27.8 62-69 0-25.6-12.4-47-23-60 13 11 32 32.8 32 67 0 39.4-31.6 77-74 77-33.8 0-61-23.2-61-58 0-20.8 16.2-44 41-44 22 0 34 14 34 31 3.6 0 6-6 6-12 0-16.6-19.8-34-43-34-30.4 0-62 27.8-62 69 0 25.6 12.4 47 23 60-13-11-32-32.8-32-67z"
      fill="url(#nebulaGradient)"
  />
  <path
      d="m0 95c0-39.4 31.6-77 74-77 33.8 0 61 23.2 61 58 0 20.8-16.2 44-41 44-22 0-34-14-34-31-3.6 0-6 6-6 12 0 16.6 19.8 34 43 34 30.4 0 62-27.8 62-69 0-25.6-12.4-47-23-60 13 11 32 32.8 32 67 0 39.4-31.6 77-74 77-33.8 0-61-23.2-61-58 0-20.8 16.2-44 41-44 22 0 34 14 34 31 3.6 0 6-6 6-12 0-16.6-19.8-34-43-34-30.4 0-62 27.8-62 69 0 25.6 12.4 47 23 60-13-11-32-32.8-32-67z"
      fill="url(#blueNebula)"
  />
  
  <!-- Define a clipping path for the yin-yang shape -->
  <defs>
    <clipPath id="yinYangClip">
      <path d="m0 95c0-39.4 31.6-77 74-77 33.8 0 61 23.2 61 58 0 20.8-16.2 44-41 44-22 0-34-14-34-31-3.6 0-6 6-6 12 0 16.6 19.8 34 43 34 30.4 0 62-27.8 62-69 0-25.6-12.4-47-23-60 13 11 32 32.8 32 67 0 39.4-31.6 77-74 77-33.8 0-61-23.2-61-58 0-20.8 16.2-44 41-44 22 0 34 14 34 31 3.6 0 6-6 6-12 0-16.6-19.8-34-43-34-30.4 0-62 27.8-62 69 0 25.6 12.4 47 23 60-13-11-32-32.8-32-67z"/>
    </clipPath>
  </defs>
  
  <!-- Spiral galaxy arms clipped to yin-yang -->
  <g clip-path="url(#yinYangClip)">
    <path d="M20,84 Q50,30 120,50 Q150,80 140,120 Q100,150 60,130 Q30,100 50,70" 
          fill="none" stroke="url(#spiralArm)" stroke-width="3" opacity="0.3"/>
    <path d="M40,60 Q80,20 140,40 Q160,80 150,130 Q110,160 70,140" 
          fill="none" stroke="url(#spiralArm)" stroke-width="2" opacity="0.2"/>
    <path d="M30,100 Q70,140 130,120 Q160,90 140,50 Q100,20 60,40" 
          fill="none" stroke="url(#spiralArm)" stroke-width="2" opacity="0.2"/>
  </g>
  
  <!-- Stars scattered throughout, clipped to yin-yang -->
  <g clip-path="url(#yinYangClip)">
    <!-- Bright stars -->
    <circle cx="25" cy="40" r="1" fill="#ffffff" opacity="0.9"/>
    <circle cx="45" cy="25" r="0.8" fill="#ffeb3b" opacity="0.8"/>
    <circle cx="70" cy="35" r="1.2" fill="#e3f2fd" opacity="0.9"/>
    <circle cx="95" cy="28" r="0.6" fill="#ffffff" opacity="0.7"/>
    <circle cx="120" cy="45" r="1" fill="#bbdefb" opacity="0.8"/>
    <circle cx="140" cy="30" r="0.8" fill="#ffffff" opacity="0.9"/>
    <circle cx="155" cy="55" r="0.7" fill="#ffeb3b" opacity="0.7"/>
    
    <circle cx="20" cy="80" r="0.9" fill="#e1f5fe" opacity="0.8"/>
    <circle cx="35" cy="110" r="0.6" fill="#ffffff" opacity="0.6"/>
    <circle cx="55" cy="95" r="1.1" fill="#ffeb3b" opacity="0.9"/>
    <circle cx="80" cy="85" r="0.7" fill="#bbdefb" opacity="0.7"/>
    <circle cx="105" cy="110" r="0.8" fill="#ffffff" opacity="0.8"/>
    <circle cx="130" cy="95" r="1" fill="#e3f2fd" opacity="0.9"/>
    <circle cx="150" cy="115" r="0.6" fill="#ffeb3b" opacity="0.6"/>
    
    <circle cx="30" cy="140" r="0.8" fill="#ffffff" opacity="0.8"/>
    <circle cx="60" cy="155" r="1" fill="#bbdefb" opacity="0.9"/>
    <circle cx="85" cy="145" r="0.7" fill="#ffeb3b" opacity="0.7"/>
    <circle cx="110" cy="160" r="0.9" fill="#e1f5fe" opacity="0.8"/>
    <circle cx="135" cy="140" r="0.6" fill="#ffffff" opacity="0.7"/>
    <circle cx="155" cy="150" r="0.8" fill="#bbdefb" opacity="0.8"/>
    
    <!-- Smaller dim stars -->
    <circle cx="15" cy="60" r="0.3" fill="#ffffff" opacity="0.4"/>
    <circle cx="40" cy="70" r="0.4" fill="#e3f2fd" opacity="0.5"/>
    <circle cx="65" cy="65" r="0.3" fill="#ffffff" opacity="0.3"/>
    <circle cx="90" cy="55" r="0.4" fill="#bbdefb" opacity="0.4"/>
    <circle cx="115" cy="70" r="0.3" fill="#ffffff" opacity="0.5"/>
    <circle cx="145" cy="75" r="0.4" fill="#e1f5fe" opacity="0.4"/>
    
    <circle cx="10" cy="120" r="0.3" fill="#bbdefb" opacity="0.3"/>
    <circle cx="50" cy="125" r="0.4" fill="#ffffff" opacity="0.4"/>
    <circle cx="75" cy="115" r="0.3" fill="#e3f2fd" opacity="0.5"/>
    <circle cx="100" cy="135" r="0.4" fill="#ffffff" opacity="0.4"/>
    <circle cx="125" cy="125" r="0.3" fill="#bbdefb" opacity="0.3"/>
    
    <!-- Twinkling effect with small crosses -->
    <g stroke="#ffffff" stroke-width="0.5" opacity="0.6">
      <path d="M25,38 L25,42 M23,40 L27,40"/>
      <path d="M70,33 L70,37 M68,35 L72,35"/>
      <path d="M120,43 L120,47 M118,45 L122,45"/>
      <path d="M55,93 L55,97 M53,95 L57,95"/>
      <path d="M130,93 L130,97 M128,95 L132,95"/>
      <path d="M60,153 L60,157 M58,155 L62,155"/>
    </g>
  </g>
  
  <metadata
      id="metadata6"
    >
    <rdf:RDF
      >
      <cc:Work
        >
        <dc:format
          >image/svg+xml</dc:format
        >
        <dc:type
            rdf:resource="http://purl.org/dc/dcmitype/StillImage"
        />
        <cc:license
            rdf:resource="http://creativecommons.org/licenses/publicdomain/"
        />
        <dc:publisher
          >
          <cc:Agent
              rdf:about="http://openclipart.org/"
            >
            <dc:title
              >Openclipart</dc:title
            >
          </cc:Agent
          >
        </dc:publisher
        >
      </cc:Work
      >
      <cc:License
          rdf:about="http://creativecommons.org/licenses/publicdomain/"
        >
        <cc:permits
            rdf:resource="http://creativecommons.org/ns#Reproduction"
        />
        <cc:permits
            rdf:resource="http://creativecommons.org/ns#Distribution"
        />
        <cc:permits
            rdf:resource="http://creativecommons.org/ns#DerivativeWorks"
        />
      </cc:License
      >
    </rdf:RDF
    >
  </metadata
  >
</svg>